<?xml version="1.0" standalone="no"?>
<!DOCTYPE svg PUBLIC "-//W3C//DTD SVG 20010904//EN"
 "http://www.w3.org/TR/2001/REC-SVG-20010904/DTD/svg10.dtd">
<svg version="1.0" xmlns="http://www.w3.org/2000/svg"
 width="154.000000pt" height="154.000000pt" viewBox="0 0 154.000000 154.000000"
 preserveAspectRatio="xMidYMid meet">
<metadata>
Created by potrace 1.14, written by Peter Selinger 2001-2017
</metadata>
<g transform="translate(0.000000,154.000000) scale(0.100000,-0.100000)"
fill="#000000" stroke="none">
<path d="M628 1330 c-221 -58 -370 -217 -426 -450 -8 -33 -8 -187 0 -225 28
-135 109 -263 223 -350 168 -130 438 -148 622 -43 145 83 242 209 283 369 79
308 -116 625 -435 706 -55 14 -203 10 -267 -7z m132 -125 c0 -30 5 -55 10 -55
6 0 10 25 10 56 l0 55 48 -6 c57 -9 135 -32 157 -49 15 -10 13 -16 -11 -60
-18 -32 -22 -47 -13 -44 8 2 24 23 37 46 l24 42 26 -19 c40 -29 95 -83 120
-118 l21 -30 -49 -27 c-28 -15 -48 -32 -45 -37 4 -5 26 3 50 17 25 14 49 23
54 20 15 -10 48 -106 56 -163 l7 -53 -56 0 c-31 0 -56 -4 -56 -10 0 -5 25 -10
55 -10 41 0 55 -4 55 -15 0 -30 -23 -122 -42 -167 l-20 -47 -46 29 c-25 16
-50 26 -54 24 -13 -8 -2 -19 41 -40 23 -10 41 -24 41 -29 0 -25 -69 -101 -131
-146 l-27 -19 -26 45 c-36 60 -55 58 -21 -2 25 -45 25 -48 8 -61 -20 -15 -97
-37 -160 -47 l-43 -7 0 56 c0 31 -4 56 -10 56 -5 0 -10 -25 -10 -55 l0 -55
-52 6 c-55 7 -154 39 -163 54 -3 4 7 29 22 55 17 32 21 46 12 43 -8 -2 -19
-13 -24 -24 -6 -10 -16 -29 -23 -42 l-13 -23 -42 31 c-23 16 -61 53 -84 82
l-42 52 49 29 c28 16 48 33 44 38 -3 5 -26 -3 -51 -18 -45 -26 -46 -26 -60 -7
-17 23 -41 103 -48 162 l-5 42 55 0 c30 0 55 5 55 10 0 6 -25 10 -55 10 l-55
0 5 43 c7 57 31 138 48 161 14 19 15 18 54 -4 23 -12 47 -20 54 -18 7 2 -10
17 -38 33 l-51 29 19 27 c24 35 84 94 118 119 l27 19 29 -49 c16 -27 32 -47
37 -44 5 3 -3 25 -17 49 -14 24 -25 46 -25 49 0 17 139 63 198 65 20 1 22 -3
22 -54z"/>
<path d="M611 925 c20 -22 57 -62 83 -90 25 -27 46 -58 46 -68 0 -24 26 -32
53 -18 12 6 57 13 99 14 96 3 91 10 -8 13 -42 1 -81 7 -87 13 -6 6 -18 11 -27
11 -8 0 -45 29 -81 63 -90 84 -121 110 -78 62z"/>
</g>
</svg>
